<svg width="13" height="8" viewBox="0 0 13 8" fill="none" xmlns="http://www.w3.org/2000/svg">
<path d="M0.261719 1.23751C0.261719 1.13751 0.261719 1.03751 0.361719 0.937512C0.561719 0.737512 0.861719 0.737512 1.06172 0.937512L6.26172 6.03751L11.4617 0.837512C11.6617 0.737512 11.9617 0.737512 12.1617 0.837512C12.2617 0.937512 12.2617 1.03751 12.2617 1.23751C12.2617 1.43751 12.2617 1.43751 12.1617 1.53751L6.66172 7.03751C6.46172 7.13751 6.36172 7.23751 6.26172 7.23751C6.16172 7.23751 6.06172 7.23751 5.96172 7.13751L0.461719 1.63751C0.261719 1.43751 0.261719 1.33751 0.261719 1.23751Z" fill="#6B5B51"/>
</svg>
