<svg width="20" height="18" viewBox="0 0 20 18" fill="none" xmlns="http://www.w3.org/2000/svg">
<path d="M9.94595 17.2973C9.83784 17.2973 9.72973 17.2973 9.62162 17.1892C9.51351 17.0811 7.13513 15.7838 4.86486 13.7297C3.45946 12.5405 2.37838 11.3514 1.51351 10.1622C0.540541 8.64865 0 7.24324 0 5.94595C0 4.32432 0.540541 2.81081 1.62162 1.72973C2.59459 0.648649 4 0 5.40541 0C7.24324 0 8.97297 1.08108 9.94595 2.7027C11.027 1.08108 12.6486 0 14.5946 0C16 0 17.2973 0.540541 18.2703 1.62162C19.3514 2.7027 20 4.32432 20 5.94595C20 7.24324 19.4595 8.75676 18.3784 10.2703C17.6216 11.4595 16.4324 12.6486 15.027 13.8378C12.6486 15.8919 10.3784 17.1892 10.2703 17.2973C10.1622 17.2973 10.0541 17.2973 9.94595 17.2973ZM5.40541 1.18919C4.32432 1.18919 3.24324 1.62162 2.37838 2.59459C1.62162 3.45946 1.18919 4.64865 1.18919 5.94595C1.18919 8.54054 3.56757 11.1351 5.62162 12.8649C7.45946 14.3784 9.2973 15.5676 9.94595 16C10.5946 15.5676 12.4324 14.3784 14.2703 12.8649C16.3243 11.1351 18.8108 8.43243 18.8108 5.94595C18.8108 4.64865 18.2703 3.35135 17.4054 2.48649C16.6486 1.72973 15.5676 1.2973 14.4865 1.2973C12.6486 1.2973 11.1351 2.59459 10.4865 4.43243C10.4865 4.54054 10.2703 4.75676 10.0541 4.75676C9.72973 4.75676 9.51351 4.54054 9.40541 4.32432C8.86486 2.37838 7.24324 1.18919 5.40541 1.18919Z" fill="white"/>
</svg>
