<svg width="16" height="16" viewBox="0 0 16 16" fill="none" xmlns="http://www.w3.org/2000/svg">
<path d="M8.1 12.1C5.8 12.1 4 10.3 4 8C4 5.7 5.8 4 8.1 4C10.4 4 12.2 5.8 12.2 8.1C12.1 10.3 10.3 12.1 8.1 12.1ZM8.1 5.7C6.7 5.7 5.7 6.7 5.7 8C5.7 9.3 6.8 10.4 8.1 10.4C9.4 10.4 10.5 9.3 10.5 8C10.5 6.7 9.4 5.7 8.1 5.7Z" fill="url(#paint0_linear)"/>
<path d="M12.1016 5C12.6538 5 13.1016 4.55228 13.1016 4C13.1016 3.44772 12.6538 3 12.1016 3C11.5493 3 11.1016 3.44772 11.1016 4C11.1016 4.55228 11.5493 5 12.1016 5Z" fill="url(#paint1_linear)"/>
<path d="M11.4 16H4.6C2.1 16 0 13.9 0 11.4V4.6C0 2.1 2.1 0 4.6 0H11.4C13.9 0 16 2.1 16 4.6V11.4C16 13.9 13.9 16 11.4 16ZM4.6 1.7C3 1.7 1.7 3 1.7 4.6V11.4C1.7 13 3 14.3 4.6 14.3H11.4C13 14.3 14.3 13 14.3 11.4V4.6C14.3 3 13 1.7 11.4 1.7H4.6Z" fill="url(#paint2_linear)"/>
<defs>
<linearGradient id="paint0_linear" x1="1.1558" y1="14.9462" x2="13.7428" y2="2.3592" gradientUnits="userSpaceOnUse">
<stop stop-color="#FEE411"/>
<stop offset="0.0518" stop-color="#FEDB16"/>
<stop offset="0.1381" stop-color="#FEC125"/>
<stop offset="0.2481" stop-color="#FE983D"/>
<stop offset="0.3762" stop-color="#FE5F5E"/>
<stop offset="0.5" stop-color="#FE2181"/>
<stop offset="1" stop-color="#9000DC"/>
</linearGradient>
<linearGradient id="paint1_linear" x1="1.13476" y1="14.9236" x2="13.7218" y2="2.3366" gradientUnits="userSpaceOnUse">
<stop stop-color="#FEE411"/>
<stop offset="0.0518" stop-color="#FEDB16"/>
<stop offset="0.1381" stop-color="#FEC125"/>
<stop offset="0.2481" stop-color="#FE983D"/>
<stop offset="0.3762" stop-color="#FE5F5E"/>
<stop offset="0.5" stop-color="#FE2181"/>
<stop offset="1" stop-color="#9000DC"/>
</linearGradient>
<linearGradient id="paint2_linear" x1="1.1046" y1="14.8952" x2="13.6917" y2="2.3081" gradientUnits="userSpaceOnUse">
<stop stop-color="#FEE411"/>
<stop offset="0.0518" stop-color="#FEDB16"/>
<stop offset="0.1381" stop-color="#FEC125"/>
<stop offset="0.2481" stop-color="#FE983D"/>
<stop offset="0.3762" stop-color="#FE5F5E"/>
<stop offset="0.5" stop-color="#FE2181"/>
<stop offset="1" stop-color="#9000DC"/>
</linearGradient>
</defs>
</svg>
