<svg width="8" height="13" viewBox="0 0 8 13" fill="none" xmlns="http://www.w3.org/2000/svg">
<g clip-path="url(#clip0)">
<path d="M6.76328 12.7374C6.86328 12.7374 6.96328 12.7374 7.06328 12.6374C7.26328 12.4374 7.26328 12.1374 7.06328 11.9374L1.96328 6.73743L7.16328 1.53743C7.26328 1.33743 7.26328 1.03743 7.16328 0.837427C7.06328 0.737427 6.96328 0.737427 6.76328 0.737427C6.56328 0.737427 6.56328 0.737427 6.46328 0.837427L0.963281 6.33743C0.863281 6.53743 0.763281 6.63743 0.763281 6.73743C0.763281 6.83743 0.763281 6.93743 0.863281 7.03743L6.36328 12.5374C6.56328 12.7374 6.66328 12.7374 6.76328 12.7374Z" fill="#112279"/>
</g>
<defs>
<clipPath id="clip0">
<rect width="13" height="8" fill="white" transform="matrix(4.37114e-08 -1 -1 -4.37114e-08 8 13)"/>
</clipPath>
</defs>
</svg>
