<svg width="16" height="15" viewBox="0 0 16 15" fill="none" xmlns="http://www.w3.org/2000/svg">
<g clip-path="url(#clip0)">
<path d="M1.875 13.625C2.75 14.5 4 15 5.125 15C6.375 15 7.5 14.5 8.375 13.625L9.625 12.375C9.875 12.125 9.875 11.75 9.625 11.5C9.5 11.25 9 11.25 8.75 11.5L7.5 12.75C6.125 14.125 4 14.125 2.75 12.75C1.375 11.375 1.375 9.25 2.75 8L4 6.75C4.25 6.5 4.25 6 4 5.75C3.75 5.5 3.375 5.5 3.125 5.75L1.875 7C5.96046e-08 8.875 5.96046e-08 11.875 1.875 13.625ZM6.25 3.5C6.5 3.75 7 3.75 7.25 3.5L8.5 2.25C9.875 0.875 12 0.875 13.25 2.25C14.625 3.625 14.625 5.75 13.25 7L12 8.25C11.75 8.5 11.75 9 12 9.25C12.125 9.375 12.25 9.375 12.5 9.375C12.625 9.375 12.875 9.375 13 9.25L14.25 8C16 6.25 16 3.25 14.25 1.375C12.5 -0.375 9.5 -0.375 7.625 1.375L6.375 2.625C6 2.875 6 3.25 6.25 3.5ZM6 9.5C6.125 9.625 6.25 9.625 6.5 9.625C6.625 9.625 6.875 9.625 7 9.5L10.25 6.25C10.5 6 10.5 5.625 10.25 5.375C10 5.125 9.625 5.125 9.375 5.375L6 8.625C5.75 8.875 5.75 9.25 6 9.5Z" fill="#112279"/>
</g>
<defs>
<clipPath id="clip0">
<rect width="16" height="15" fill="white"/>
</clipPath>
</defs>
</svg>
