<svg width="42" height="42" viewBox="0 0 42 42" fill="none" xmlns="http://www.w3.org/2000/svg">
<rect width="42" height="42" rx="4" fill="#CAECE2"/>
<g clip-path="url(#clip0)">
<path d="M31.8774 21.1978L28.4928 25.8516C28.4928 25.8516 28.0697 26.2747 28.0697 25.7912C28.0697 25.3077 28.0697 23.011 28.0697 23.011C28.0697 23.011 27.828 23.011 27.4049 23.011C26.2565 23.011 22.328 23.011 21.3609 23.011H21.3005H21.24C20.273 23.011 15.74 23.011 14.5917 23.011C14.1686 23.011 13.9269 23.011 13.9269 23.011C13.9269 23.011 13.9269 25.3077 13.9269 25.7912C13.9269 26.2747 13.5038 25.8516 13.5038 25.8516L10.1192 21.1978C10.1192 21.1978 9.87741 20.956 10.1192 20.7143C10.4818 20.4121 13.6247 16.1209 13.6247 16.1209C13.6247 16.1209 14.0477 15.6978 14.0477 16.2418C14.0477 16.7857 14.0477 18.9011 14.0477 18.9011C14.0477 18.9011 14.2895 18.9011 14.6521 18.9011C15.8005 18.9011 20.3335 18.9011 21.3005 18.9011H21.3609C22.328 18.9011 26.2565 18.9011 27.4049 18.9011C27.7675 18.9011 28.0093 18.9011 28.0093 18.9011C28.0093 18.9011 28.0093 16.7857 28.0093 16.2418C28.0093 15.6978 28.4324 16.1209 28.4324 16.1209C28.4324 16.1209 31.5752 20.4121 31.9378 20.7143C32.1192 20.956 31.8774 21.1978 31.8774 21.1978Z" fill="#67D3B2"/>
</g>
<defs>
<clipPath id="clip0">
<rect width="22" height="10.0934" fill="white" transform="translate(10 16)"/>
</clipPath>
</defs>
</svg>
