<svg width="18" height="18" viewBox="0 0 18 18" fill="none" xmlns="http://www.w3.org/2000/svg">
<rect width="18" height="18" rx="4" fill="#D9AE81"/>
<g clip-path="url(#clip0)">
<path d="M8 12C7.84483 12 7.68966 11.9483 7.58621 11.8448L5.15517 9.41379C4.94828 9.2069 4.94828 8.7931 5.15517 8.58621C5.25862 8.48276 5.41379 8.43103 5.56897 8.43103C5.72414 8.43103 5.87931 8.48276 5.98276 8.58621L8 10.6034L12.4483 6.15517C12.5517 6.05172 12.7069 6 12.8621 6C13.0172 6 13.1724 6.05172 13.2759 6.15517C13.3793 6.25862 13.431 6.41379 13.431 6.56897C13.431 6.72414 13.3793 6.87931 13.2759 6.98276L8.41379 11.8448C8.31034 11.9483 8.15517 12 8 12Z" fill="white"/>
</g>
<defs>
<clipPath id="clip0">
<rect width="8.43103" height="6" fill="white" transform="translate(5 6)"/>
</clipPath>
</defs>
</svg>
