<svg width="42" height="42" viewBox="0 0 42 42" fill="none" xmlns="http://www.w3.org/2000/svg">
<rect width="42" height="42" rx="4" fill="#E2E7FC"/>
<path d="M19.35 23.6125L21 21.9625L25.2625 26.225L23.6125 27.875L19.35 23.6125ZM22.65 28.7L18.3875 24.4375L16.7375 26.0875L21 30.4875L22.65 28.7ZM24.4375 23.6125L28.7 19.35L30.35 21L26.0875 25.2625L24.4375 23.6125ZM32 22.5125L31.3125 21.825L29.6625 23.475L32 25.8125V22.5125ZM14.125 23.6125L18.3875 19.35L20.0375 21L15.775 25.2625L14.125 23.6125ZM29.6625 13.3L32 15.6375V10.9625L29.6625 13.3ZM11.65 21L15.9125 16.7375L17.5625 18.3875L13.3 22.65L11.65 21ZM21.9625 21L26.225 16.7375L27.875 18.3875L23.6125 22.65L21.9625 21ZM24.4375 13.3L26.0875 14.95L31.0375 10H27.6L24.4375 13.3ZM32 17.425L28.7 14.125L27.05 15.775L32 20.725V17.425ZM19.35 13.3L23.6125 17.5625L25.2625 15.9125L21 11.5125L19.35 13.3ZM16.7375 15.9125L18.3875 14.125L22.65 18.3875L21 20.0375L16.7375 15.9125ZM27.875 28.7L26.225 27.05L21.275 32H24.575L27.875 28.7ZM20.0375 31.3125L18.3875 29.6625L16.05 32H19.35L20.0375 31.3125ZM17.5625 28.7L15.9125 27.05L10.9625 32H14.4L17.5625 28.7ZM28.7 24.4375L27.05 26.0875L32 31.0375V27.6L28.7 24.4375ZM10 26.3625V31.0375L12.3375 28.7L10 26.3625ZM28.7 29.6625L26.3625 32H31.0375L28.7 29.6625ZM21.9625 10.6875L23.6125 12.3375L25.95 10H22.5125L21.9625 10.6875ZM13.3 12.3375L15.6375 10H10.9625L13.3 12.3375ZM13.3 27.875L14.95 26.225L10 21.275V24.575L13.3 27.875ZM14.125 13.3L15.775 14.95L20.725 10H17.425L14.125 13.3ZM13.3 17.5625L14.95 15.9125L10 10.9625V14.4L13.3 17.5625ZM10.6875 20.0375L12.3375 18.3875L10 16.05V19.35L10.6875 20.0375Z" fill="#7C8DC8"/>
</svg>
