<svg width="18" height="16" viewBox="0 0 18 16" fill="none" xmlns="http://www.w3.org/2000/svg">
<g clip-path="url(#clip0)">
<path d="M16.9 6.1L9.5 0.3C9.2 0.1 8.9 0 8.5 0C8.2 0 7.9 0.1 7.6 0.3L0.2 6.1C0.1 6.2 0 6.4 0 6.5V14.5C0 15.3 0.7 16 1.5 16H15.6C16.4 16 17.1 15.3 17.1 14.5V6.5C17.1 6.4 17 6.2 16.9 6.1ZM8.2 1.1C8.3 1.1 8.4 1 8.5 1C8.6 1 8.7 1.1 8.8 1.1L15.7 6.5L8.8 11.9C8.7 11.9 8.6 12 8.5 12C8.4 12 8.3 11.9 8.2 11.9L1.3 6.5L8.2 1.1ZM16.1 14.5C16.1 14.8 15.9 15 15.6 15H1.5C1.2 15 1 14.8 1 14.5V7.5L7.6 12.7C7.9 12.9 8.2 13 8.5 13C8.8 13 9.2 12.9 9.4 12.7L16 7.5V14.5H16.1ZM9.7 9.8C10 9.7 10.1 9.4 10 9.2C9.9 8.9 9.6 8.8 9.4 8.9C9.1 9 8.8 9 8.5 9C7.2 9 6 7.9 6 6.5C6 5.1 7.2 4 8.5 4C9.8 4 11 5.1 11 6.5C11 6.8 10.8 7 10.5 7C10.3 7 10 6.8 10 6.5C10 5.7 9.4 5 8.5 5C7.6 5 7 5.7 7 6.5C7 7.3 7.7 8 8.5 8C8.9 8 9.2 7.9 9.5 7.6C9.8 7.8 10.1 8 10.5 8C11.4 8 12 7.3 12 6.5C12 3.7 9.6 3 8.5 3C6.6 3 5 4.6 5 6.5C5 8.4 6.6 10 8.5 10C8.9 10 9.3 9.9 9.7 9.8ZM8.5 7C8.3 7 8 6.8 8 6.5C8 6.2 8.3 6 8.5 6C8.8 6 9 6.2 9 6.5C9 6.8 8.8 7 8.5 7Z" fill="#E0400D"/>
</g>
<defs>
<clipPath id="clip0">
<rect width="17.1" height="16" fill="white"/>
</clipPath>
</defs>
</svg>
