<svg width="42" height="42" viewBox="0 0 42 42" fill="none" xmlns="http://www.w3.org/2000/svg">
<rect width="42" height="42" rx="4" fill="#CCE3F8"/>
<g clip-path="url(#clip0)">
<path d="M20.8015 31.8791L16.1476 28.4945C16.1476 28.4945 15.7246 28.0714 16.2081 28.0714C16.6916 28.0714 18.9883 28.0714 18.9883 28.0714C18.9883 28.0714 18.9883 27.8297 18.9883 27.4066C18.9883 26.2582 18.9883 22.3297 18.9883 21.3626L18.9883 21.3022L18.9883 21.2418C18.9883 20.2747 18.9883 15.7418 18.9883 14.5934C18.9883 14.1703 18.9883 13.9286 18.9883 13.9286C18.9883 13.9286 16.6916 13.9286 16.2081 13.9286C15.7246 13.9286 16.1476 13.5055 16.1476 13.5055L20.8015 10.1209C20.8015 10.1209 21.0432 9.87912 21.285 10.1209C21.5872 10.4835 25.8784 13.6264 25.8784 13.6264C25.8784 13.6264 26.3015 14.0494 25.7575 14.0494C25.2136 14.0494 23.0982 14.0494 23.0982 14.0494C23.0982 14.0494 23.0982 14.2912 23.0982 14.6538C23.0982 15.8022 23.0982 20.3352 23.0982 21.3022L23.0982 21.3626C23.0982 22.3297 23.0982 26.2582 23.0982 27.4066C23.0982 27.7692 23.0982 28.011 23.0982 28.011C23.0982 28.011 25.2136 28.011 25.7575 28.011C26.3015 28.011 25.8784 28.4341 25.8784 28.4341C25.8784 28.4341 21.5872 31.5769 21.285 31.9396C21.0432 32.1209 20.8015 31.8791 20.8015 31.8791Z" fill="#9CBCDA"/>
</g>
<defs>
<clipPath id="clip0">
<rect width="22" height="10.0934" fill="white" transform="translate(26 10) rotate(90)"/>
</clipPath>
</defs>
</svg>
