<svg width="21" height="18" viewBox="0 0 21 18" fill="none" xmlns="http://www.w3.org/2000/svg">
<g clip-path="url(#clip0_127_686)">
<path d="M10.0703 17.5135C9.96081 17.5135 9.85135 17.5135 9.74189 17.4041C9.63243 17.2946 7.22432 15.9811 4.92568 13.9014C3.5027 12.6973 2.40811 11.4932 1.53243 10.2892C0.547297 8.75676 0 7.33378 0 6.02027C0 4.37838 0.547297 2.84595 1.64189 1.75135C2.62703 0.656757 4.05 0 5.47297 0C7.33378 0 9.08513 1.09459 10.0703 2.73649C11.1649 1.09459 12.8068 0 14.777 0C16.2 0 17.5135 0.547297 18.4986 1.64189C19.5932 2.73649 20.25 4.37838 20.25 6.02027C20.25 7.33378 19.7027 8.86622 18.6081 10.3986C17.8419 11.6027 16.6378 12.8068 15.2149 14.0108C12.8068 16.0905 10.5081 17.4041 10.3986 17.5135C10.2892 17.5135 10.1797 17.5135 10.0703 17.5135ZM5.47297 1.20405C4.37838 1.20405 3.28378 1.64189 2.40811 2.62703C1.64189 3.5027 1.20405 4.70676 1.20405 6.02027C1.20405 8.6473 3.61216 11.2743 5.69189 13.0257C7.5527 14.5581 9.41351 15.7622 10.0703 16.2C10.727 15.7622 12.5878 14.5581 14.4486 13.0257C16.5284 11.2743 19.0459 8.53784 19.0459 6.02027C19.0459 4.70676 18.4986 3.39324 17.623 2.51757C16.8568 1.75135 15.7622 1.31351 14.6676 1.31351C12.8068 1.31351 11.2743 2.62703 10.6176 4.48784C10.6176 4.5973 10.3986 4.81622 10.1797 4.81622C9.85135 4.81622 9.63243 4.5973 9.52297 4.37838C8.97568 2.40811 7.33378 1.20405 5.47297 1.20405Z" fill="#2F3339"/>
</g>
<defs>
<clipPath id="clip0_127_686">
<rect width="20.25" height="18" fill="white"/>
</clipPath>
</defs>
</svg>
