<svg width="14" height="11" viewBox="0 0 14 11" fill="none" xmlns="http://www.w3.org/2000/svg">
<g clip-path="url(#clip0)">
<path d="M12.2889 0H1.71111C0.777778 0 0 0.777778 0 1.71111V8.94444C0 9.87778 0.777778 10.6556 1.71111 10.6556H12.2889C13.2222 10.6556 14 9.87778 14 8.94444V1.71111C14 0.777778 13.2222 0 12.2889 0ZM13.2222 8.94444C13.2222 9.48889 12.8333 9.87778 12.2889 9.87778H1.71111C1.16667 9.87778 0.777778 9.48889 0.777778 8.94444V1.71111C0.777778 1.16667 1.16667 0.777778 1.71111 0.777778H12.2889C12.8333 0.777778 13.2222 1.16667 13.2222 1.71111V8.94444ZM8.86667 5.21111L12.2889 2.17778C12.4444 2.02222 12.4444 1.78889 12.2889 1.63333C12.1333 1.47778 11.9 1.47778 11.7444 1.63333L7 5.83333L6.06667 4.97778C6.06667 4.97778 5.98889 4.97778 5.98889 4.9L2.25556 1.55556C2.1 1.4 1.86667 1.4 1.71111 1.55556C1.55556 1.78889 1.55556 2.02222 1.71111 2.17778L5.21111 5.28889L1.78889 8.55556C1.63333 8.71111 1.63333 8.94444 1.78889 9.1C1.86667 9.17778 1.94444 9.25556 2.1 9.25556C2.17778 9.25556 2.25556 9.25556 2.33333 9.17778L5.83333 5.91111L6.76667 6.76667C6.84444 6.68889 6.92222 6.76667 7 6.76667C7.07778 6.76667 7.15556 6.76667 7.23333 6.68889L8.24444 5.83333L11.7444 9.17778C11.8222 9.25556 11.9 9.25556 11.9778 9.25556C12.0556 9.25556 12.2111 9.17778 12.2889 9.1C12.4444 8.94444 12.4444 8.71111 12.2889 8.55556L8.86667 5.21111Z" fill="#D9AE81"/>
</g>
<defs>
<clipPath id="clip0">
<rect width="14" height="10.6556" fill="white"/>
</clipPath>
</defs>
</svg>
