<svg width="9" height="6" viewBox="0 0 9 6" fill="none" xmlns="http://www.w3.org/2000/svg">
<g clip-path="url(#clip0)">
<path d="M3 6C2.84483 6 2.68966 5.94828 2.58621 5.84483L0.155172 3.41379C-0.0517241 3.2069 -0.0517241 2.7931 0.155172 2.58621C0.258621 2.48276 0.413793 2.43103 0.568965 2.43103C0.724138 2.43103 0.87931 2.48276 0.982759 2.58621L3 4.60345L7.44828 0.155172C7.55172 0.0517241 7.7069 0 7.86207 0C8.01724 0 8.17241 0.0517241 8.27586 0.155172C8.37931 0.258621 8.43103 0.413793 8.43103 0.568965C8.43103 0.724138 8.37931 0.87931 8.27586 0.982759L3.41379 5.84483C3.31034 5.94828 3.15517 6 3 6Z" fill="white"/>
</g>
<defs>
<clipPath id="clip0">
<rect width="8.43103" height="6" fill="white"/>
</clipPath>
</defs>
</svg>
