<svg width="11" height="14" viewBox="0 0 11 14" fill="none" xmlns="http://www.w3.org/2000/svg">
<g clip-path="url(#clip0)">
<path d="M2.87839 0.700069C2.87839 0.700069 2.87839 0.700069 2.95616 0.700069C3.11172 0.777847 3.1895 0.855625 3.34505 1.01118C3.57839 1.32229 3.81172 1.71118 3.96727 1.94451C4.35616 2.64451 4.51172 3.11118 4.51172 3.42229C4.51172 3.7334 4.43394 3.88896 4.20061 4.04451L3.50061 4.4334C3.03394 4.66674 2.87839 5.1334 2.80061 5.52229C2.72283 5.91118 2.80061 6.37785 3.03394 6.68896L4.66727 9.56674C4.82283 9.87785 5.21172 10.189 5.60061 10.3445C5.9895 10.5001 6.45616 10.5778 6.92283 10.3445L7.62283 9.95562C7.85616 9.80007 8.01172 9.80007 8.32283 9.95562C8.55616 10.1112 8.94505 10.5001 9.33394 11.1223C9.4895 11.3556 9.72283 11.8223 9.87838 12.1334C9.95616 12.289 9.95616 12.4445 9.95616 12.5223C9.95616 12.6001 9.95616 12.6001 9.95616 12.6001L9.33394 12.9112C8.0895 13.4556 6.84505 13.3778 5.83394 12.8334C4.74505 12.289 3.8895 11.2778 3.1895 10.1112L1.7895 7.70007C1.0895 6.5334 0.700608 5.28896 0.700608 4.12229C0.778386 2.95562 1.24505 1.86674 2.33394 1.01118L2.87839 0.700069ZM3.34505 0.0778472C3.11172 6.93761e-05 2.80061 -0.0777084 2.56727 0.0778472L2.02283 0.388958C0.700608 1.40007 0.0783857 2.72229 0.000607881 4.04451C-0.0771699 5.44451 0.389497 6.84451 1.16727 8.08896L2.56727 10.5001C3.26727 11.7445 4.27839 12.8334 5.44505 13.4556C6.6895 14.0778 8.0895 14.2334 9.56727 13.6112L10.1117 13.3001C10.3451 13.1445 10.5006 12.9112 10.5006 12.6778C10.5006 12.4445 10.5006 12.2112 10.4228 11.9778C10.2673 11.5112 10.0339 11.0445 9.80061 10.7334C9.41172 10.0334 9.02283 9.56674 8.55616 9.3334C8.0895 9.10007 7.54505 9.10007 7.15616 9.3334L6.45616 9.72229C6.22283 9.80007 5.9895 9.80007 5.75616 9.72229C5.52283 9.64451 5.2895 9.41118 5.21172 9.25562L3.65616 6.30007C3.57839 6.14451 3.50061 5.91118 3.50061 5.60007C3.50061 5.36674 3.65616 5.1334 3.81172 5.05562L4.51172 4.66674C4.97839 4.4334 5.21172 3.96674 5.21172 3.42229C5.21172 2.87785 4.97839 2.3334 4.5895 1.6334C4.43394 1.32229 4.20061 0.855625 3.81172 0.544514C3.73394 0.31118 3.50061 0.155625 3.34505 0.0778472Z" fill="#D9AE81"/>
</g>
<defs>
<clipPath id="clip0">
<rect width="10.5778" height="14" fill="white"/>
</clipPath>
</defs>
</svg>
