<svg width="12" height="14" viewBox="0 0 12 14" fill="none" xmlns="http://www.w3.org/2000/svg">
<path d="M10.1111 1.71111C9.02222 0.622222 7.46667 0 5.91111 0C4.35556 0 2.87778 0.622222 1.71111 1.71111C0.622222 2.87778 0 4.35556 0 5.91111C0 9.1 3.03333 11.7444 4.66667 13.2222C4.9 13.4556 5.05555 13.6111 5.21111 13.7667C5.44444 13.9222 5.67778 14 5.91111 14C6.14444 14 6.37778 13.9222 6.61111 13.6889C6.76667 13.6111 7 13.3778 7.15555 13.2222C8.78889 11.8222 11.8222 9.1 11.8222 5.91111C11.8222 4.35556 11.2 2.87778 10.1111 1.71111ZM6.68889 12.6C6.45556 12.8333 6.22222 12.9889 6.06667 13.1444C5.98889 13.2222 5.91111 13.2222 5.83333 13.1444C5.67778 12.9889 5.44444 12.8333 5.21111 12.6C3.65556 11.2778 0.855556 8.78889 0.855556 5.91111C0.855556 3.11111 3.11111 0.855556 5.91111 0.855556C8.71111 0.855556 11.0444 3.11111 11.0444 5.98889C11.0444 8.78889 8.16667 11.2778 6.68889 12.6Z" fill="#D9AE81"/>
<path d="M5.91111 3.11111C4.51111 3.11111 3.34445 4.27778 3.34445 5.67778C3.34445 7.07778 4.51111 8.32222 5.98889 8.32222C7.46667 8.32222 8.55556 7.15556 8.55556 5.67778C8.55556 4.2 7.38889 3.11111 5.91111 3.11111ZM5.91111 7.46667C4.9 7.46667 4.12222 6.68889 4.12222 5.67778C4.12222 4.66667 4.9 3.88889 5.91111 3.88889C6.92222 3.88889 7.7 4.66667 7.7 5.67778C7.7 6.68889 6.92222 7.46667 5.91111 7.46667Z" fill="#D9AE81"/>
</svg>
