<svg width="42" height="42" viewBox="0 0 42 42" fill="none" xmlns="http://www.w3.org/2000/svg">
<rect width="42" height="42" rx="4" fill="#F5F4C6"/>
<path d="M30.1667 10H22.4667C22.1 10 21.3667 10.3667 21 10.7333L10.55 21.1833C9.81667 21.9167 9.81667 23.0167 10.55 23.75L18.25 31.45C18.9833 32.1833 20.0833 32.1833 20.8167 31.45L31.2667 21C31.6333 20.6333 32 19.9 32 19.5333V11.8333C32 10.9167 31.0833 10 30.1667 10ZM26.5 17.3333C25.4 17.3333 24.6667 16.6 24.6667 15.5C24.6667 14.4 25.4 13.6667 26.5 13.6667C27.6 13.6667 28.3333 14.4 28.3333 15.5C28.3333 16.6 27.6 17.3333 26.5 17.3333Z" fill="#C6C486"/>
</svg>
