<svg width="20" height="18" viewBox="0 0 20 18" fill="none" xmlns="http://www.w3.org/2000/svg">
<path d="M9.62162 17.1892C9.72973 17.2973 9.83784 17.2973 9.94595 17.2973H10.2703C10.3784 17.1892 12.6486 15.8919 15.027 13.8378C16.4324 12.6486 17.6216 11.4595 18.3784 10.2703C19.4595 8.75676 20 7.24324 20 5.94595C20 4.32432 19.3514 2.7027 18.2703 1.62162C17.2973 0.540541 16 0 14.5946 0C12.6486 0 11.027 1.08108 9.94595 2.7027C8.97297 1.08108 7.24324 0 5.40541 0C4 0 2.59459 0.648649 1.62162 1.72973C0.540541 2.81081 0 4.32432 0 5.94595C0 7.24324 0.540541 8.64865 1.51351 10.1622C2.37838 11.3513 3.45946 12.5405 4.86486 13.7297C7.13513 15.7838 9.51351 17.0811 9.62162 17.1892Z" fill="#FF0000"/>
</svg>
