<svg width="8" height="13" viewBox="0 0 8 13" fill="none" xmlns="http://www.w3.org/2000/svg">
<g clip-path="url(#clip0)">
<path d="M1.23672 12.7374C1.13672 12.7374 1.03672 12.7374 0.936719 12.6374C0.736719 12.4374 0.736719 12.1374 0.936719 11.9374L6.03672 6.73743L0.836719 1.53743C0.736719 1.33743 0.736719 1.03743 0.836719 0.837427C0.936719 0.737427 1.03672 0.737427 1.23672 0.737427C1.43672 0.737427 1.43672 0.737427 1.53672 0.837427L7.03672 6.33743C7.13672 6.53743 7.23672 6.63743 7.23672 6.73743C7.23672 6.83743 7.23672 6.93743 7.13672 7.03743L1.63672 12.5374C1.43672 12.7374 1.33672 12.7374 1.23672 12.7374Z" fill="#112279"/>
</g>
<defs>
<clipPath id="clip0">
<rect width="13" height="8" fill="white" transform="translate(0 13) rotate(-90)"/>
</clipPath>
</defs>
</svg>
