<svg width="18" height="18" viewBox="0 0 18 18" fill="none" xmlns="http://www.w3.org/2000/svg">
<path d="M17.4375 17.9438C17.325 17.9438 17.1 17.8313 16.9875 17.8313L13.275 14.1188L13.1625 14.2312C11.5875 15.4687 9.9 16.1438 7.9875 16.1438C3.6 16.1438 0 12.5437 0 8.04375C0 3.65625 3.6 0.0562744 7.9875 0.0562744C12.375 0.0562744 15.975 3.65625 15.975 8.04375C15.975 9.84375 15.4125 11.6437 14.175 13.1062L14.0625 13.2188V13.3313L17.6625 16.9313C17.8875 17.1563 17.8875 17.4938 17.6625 17.7188C17.6625 17.9438 17.55 17.9438 17.4375 17.9438ZM7.9875 1.18127C4.1625 1.18127 1.125 4.21875 1.125 8.04375C1.125 11.8687 4.1625 14.9063 7.9875 14.9063C11.8125 14.9063 14.85 11.8687 14.85 8.04375C14.9625 4.21875 11.8125 1.18127 7.9875 1.18127Z" fill="white"/>
</svg>
