<svg width="16" height="14" viewBox="0 0 16 14" fill="none" xmlns="http://www.w3.org/2000/svg">
<g clip-path="url(#clip0)">
<path d="M2.4 13.8667C1.06667 13.8667 0 12.8 0 11.4667V6.26667C0 5.06667 1.06667 4 2.4 4H3.6C4 4 4.26667 4.26667 4.26667 4.53333C4.26667 4.8 4 5.2 3.6 5.2H2.4C1.73333 5.2 1.2 5.73333 1.2 6.4V11.4667C1.2 12.1333 1.73333 12.6667 2.4 12.6667H13.6C14.2667 12.6667 14.8 12.1333 14.8 11.4667V6.26667C14.8 5.6 14.2667 5.06667 13.6 5.06667H12.5333C12.1333 5.06667 11.8667 4.8 11.8667 4.4C11.8667 4 12.1333 4 12.5333 4H13.6C14.9333 4 16 5.06667 16 6.4V11.4667C16 12.8 14.9333 13.8667 13.6 13.8667H2.4Z" fill="#112279"/>
<path d="M7.9993 8.26667C7.5993 8.26667 7.33263 8 7.33263 7.6V1.86667L6.53263 3.2C6.53263 3.33333 6.26597 3.33333 6.13263 3.33333C5.9993 3.33333 5.86597 3.33333 5.73263 3.2C5.46597 2.93333 5.46597 2.53333 5.5993 2.4L6.93263 0.533333C6.93263 0.4 7.06597 0.4 7.06597 0.4C7.46597 0.133333 7.73263 0 7.9993 0C8.3993 0 8.7993 0.133333 9.06597 0.533333L10.3993 2.4C10.666 2.66667 10.5326 3.06667 10.266 3.33333C10.1326 3.33333 9.9993 3.33333 9.86597 3.33333C9.73263 3.33333 9.46597 3.2 9.33263 3.06667L8.66597 1.86667V7.6C8.66597 8 8.3993 8.26667 7.9993 8.26667Z" fill="#112279"/>
</g>
<defs>
<clipPath id="clip0">
<rect width="16" height="13.8667" fill="white"/>
</clipPath>
</defs>
</svg>
