<svg width="16" height="14" viewBox="0 0 16 14" fill="none" xmlns="http://www.w3.org/2000/svg">
<g clip-path="url(#clip0)">
<path d="M15.8 0.4C15.6 0.1 15.3 0 14.9 0C14.7 0 14.5 0 14.3 0.1L0.8 5.3C0.1 5.6 0 6 0 6.2C0 6.4 0.1 6.8 0.9 7.1L3.7 7.9L5.2 12.2C5.4 12.8 5.9 13.2 6.4 13.2C6.7 13.2 7.1 13.1 7.4 12.8L9.1 11.2L11.6 13.2C11.9 13.4 12.2 13.5 12.5 13.5C13.1 13.5 13.5 13.1 13.7 12.4L15.9 1.4C16.1 1 16 0.6 15.8 0.4ZM4.6 7.7L10 4.9L6.7 8.5C6.6 8.6 6.6 8.7 6.6 8.7L5.9 11.3L4.6 7.7ZM6.8 12.1C6.7 12.1 6.7 12.1 6.8 12.1L7.3 9.7L8.4 10.6L6.8 12.1ZM15 1.3L12.8 12.3C12.8 12.4 12.7 12.6 12.5 12.6C12.4 12.6 12.3 12.6 12.2 12.5L9.3 10.2L7.7 8.8L12.6 3.6C12.8 3.4 12.8 3.2 12.6 3C12.5 2.8 12.2 2.8 12 2.9L4 7L1.1 6.2L14.7 1C14.8 1 14.9 0.9 14.9 0.9H15C15.1 1 15.1 1.1 15 1.3Z" fill="#039BE5"/>
</g>
<defs>
<clipPath id="clip0">
<rect width="16" height="13.5" fill="white"/>
</clipPath>
</defs>
</svg>
