<svg width="13" height="8" viewBox="0 0 13 8" fill="none" xmlns="http://www.w3.org/2000/svg">
<path d="M0.738281 6.7625C0.738281 6.8625 0.738281 6.9625 0.838282 7.0625C1.03828 7.2625 1.33828 7.2625 1.53828 7.0625L6.73828 1.9625L11.9383 7.1625C12.1383 7.2625 12.4383 7.2625 12.6383 7.1625C12.7383 7.0625 12.7383 6.9625 12.7383 6.7625C12.7383 6.5625 12.7383 6.5625 12.6383 6.4625L7.13828 0.962503C6.93828 0.862503 6.83828 0.762503 6.73828 0.762503C6.63828 0.762503 6.53828 0.762503 6.43828 0.862503L0.938281 6.3625C0.738281 6.5625 0.738281 6.6625 0.738281 6.7625Z" fill="#6B5B51"/>
</svg>
