<svg width="16" height="17" viewBox="0 0 16 17" fill="none" xmlns="http://www.w3.org/2000/svg">
<g clip-path="url(#clip0)">
<path d="M15.4002 9.80001C15.9002 5.50001 15.2002 2.80001 13.8002 1.60001C11.6002 -0.399993 4.30024 -0.699993 1.60024 1.80001C0.500238 3.00001 0.100238 4.80001 0.000237955 7.00001C0.000237955 9.20001 -0.0997622 13.3 3.80024 14.5V16.2C3.80024 16.2 3.80024 16.9 4.20024 17C4.70024 17.2 4.90024 16.8 6.50024 15C9.10024 15.2 11.2002 14.7 11.4002 14.6C11.9002 14.4 14.9002 14 15.4002 9.80001ZM6.80024 13.7C6.80024 13.7 5.10024 15.8 4.60024 16.3C4.40024 16.5 4.20024 16.5 4.20024 16.1C4.20024 15.9 4.20024 13.3 4.20024 13.3C1.00024 12.4 1.20024 8.90001 1.20024 7.00001C1.20024 5.20001 1.60024 3.70001 2.60024 2.60001C4.80024 0.500007 11.3002 1.00001 13.0002 2.50001C15.0002 4.30001 14.3002 9.30001 14.3002 9.50001C13.9002 12.9 11.4002 13.2 11.0002 13.3C10.8002 13.4 9.00024 13.9 6.80024 13.7Z" fill="#8E24AA"/>
<path d="M7.70156 3.10001C7.40156 3.10001 7.40156 3.50001 7.70156 3.50001C9.80156 3.50001 11.6016 5.00001 11.6016 7.70001C11.5016 8.00001 12.0016 8.00001 12.0016 7.70001C11.9016 4.80001 10.0016 3.10001 7.70156 3.10001Z" fill="#8E24AA"/>
<path d="M10.5 7.20001C10.5 7.50001 10.9 7.50001 10.9 7.20001C10.9 5.60001 9.9 4.30001 8.1 4.10001C7.8 4.10001 7.8 4.50001 8.1 4.50001C9.6 4.70001 10.5 5.80001 10.5 7.20001Z" fill="#8E24AA"/>
<path d="M10.0002 9C9.70017 8.8 9.30017 9 9.20017 9.2L8.80017 9.6C8.70017 9.8 8.40017 9.7 8.40017 9.7C6.30017 9.2 5.70017 6.9 5.70017 6.9C5.70017 6.9 5.70017 6.6 5.90017 6.4L6.30017 6.1C6.40017 6 6.60017 5.6 6.40017 5.3C5.80017 4.3 5.50017 4 5.30017 3.8C5.10017 3.5 4.80017 3.5 4.50017 3.6C3.90017 4 3.30017 4.7 3.50017 5.4C3.90017 6.1 4.50017 8.4 6.70017 10.2C7.70017 11 9.30017 11.9 10.0002 12.1C10.7002 12.3 11.3002 11.6 11.7002 11C11.9002 10.7 11.8002 10.4 11.6002 10.2C11.1002 9.8 10.5002 9.3 10.0002 9Z" fill="#8E24AA"/>
<path d="M8.29844 5.70002C8.99844 5.70002 9.29844 6.10002 9.29844 6.80002C9.29844 7.10002 9.69844 7.10002 9.69844 6.80002C9.69844 5.80002 9.19844 5.30002 8.29844 5.30002C8.09844 5.30002 8.09844 5.70002 8.29844 5.70002Z" fill="#8E24AA"/>
</g>
<defs>
<clipPath id="clip0">
<rect width="15.6" height="17" fill="white"/>
</clipPath>
</defs>
</svg>
