<svg width="16" height="16" viewBox="0 0 16 16" fill="none" xmlns="http://www.w3.org/2000/svg">
<g clip-path="url(#clip0)">
<path fill-rule="evenodd" clip-rule="evenodd" d="M1.1 12C0.4 10.7 0 9.3 0 7.9C0 3.6 3.6 0 8 0C10.1 0 12.1 0.8 13.6 2.3C15.1 3.8 15.9 5.8 15.9 7.9C15.9 12.3 12.3 15.8 8 15.8C6.7 15.8 5.4 15.5 4.2 14.8L0 16L1.1 12ZM4.5 13.8C5.5 14.4 6.7 14.7 8 14.7C11.7 14.7 14.8 11.7 14.8 7.9C14.8 6.1 14.1 4.4 12.8 3.1C11.5 1.8 9.8 1.1 8 1.1C4.3 1.1 1.2 4.1 1.2 7.9C1.2 9.2 1.6 10.4 2.2 11.5L2.4 11.8L1.7 14.4L4.4 13.7L4.5 13.8ZM10.1 11.7C9.8 11.7 9.6 11.7 9.4 11.6C9.1 11.5 8.7 11.4 8.3 11.2C6.7 10.5 5.5 9.1 4.9 8.2C4.5 7.9 4 7 4 6.2C4 5.3 4.4 4.9 4.6 4.6C4.8 4.4 5 4.3 5.1 4.3C5.2 4.3 5.4 4.3 5.5 4.3C5.6 4.3 5.7 4.3 5.9 4.6L6.1 5.1C6.3 5.5 6.5 6 6.5 6.1C6.6 6.2 6.6 6.3 6.5 6.4C6.5 6.5 6.3 6.7 6 7.1C5.9 7.2 5.8 7.3 5.9 7.6C6.1 7.8 6.5 8.5 7.1 9C7.8 9.6 8.3 9.8 8.6 10H8.7C8.8 10.1 8.9 10.1 9 10.1C9.1 10.1 9.2 10.1 9.3 9.9C9.4 9.8 9.8 9.3 9.9 9.1C10 9 10 9 10.1 9C10.2 9 10.2 9 10.3 9C10.5 9.1 11.4 9.5 11.7 9.7L11.8 9.8C11.9 9.9 12 9.9 12 9.9C12 10 12 10.3 11.9 10.8C11.7 11.2 11 11.6 10.6 11.7C10.4 11.7 10.2 11.7 10.1 11.7Z" fill="#4CAF50"/>
</g>
<defs>
<clipPath id="clip0">
<rect width="15.9" height="16" fill="white"/>
</clipPath>
</defs>
</svg>
